<svg id="_1-Tooth" height="48" viewBox="0 0 48 48" width="48" xmlns="http://www.w3.org/2000/svg" data-name="1-Tooth"><g id="_Group_"><path d="m47 15a13.979 13.979 0 0 1 -6 11.48v16.52a4 4 0 0 1 -4 4h-8v-10a2.006 2.006 0 0 0 -2-2h-6a2.006 2.006 0 0 0 -2 2v10h-8a4 4 0 0 1 -4-4v-16.52a14 14 0 1 1 17-22.2 14 14 0 0 1 23 10.72z" fill="#87d2f3"/><g fill="none" stroke="#2170a6" stroke-linejoin="round" stroke-width="2"><path d="m33 1a13.958 13.958 0 0 0 -9 3.28 14 14 0 1 0 -17 22.2v16.52a4 4 0 0 0 4 4h8v-10a2.006 2.006 0 0 1 2-2h6a2.006 2.006 0 0 1 2 2v10h8a4 4 0 0 0 4-4v-16.52a13.994 13.994 0 0 0 -8-25.48z"/><path d="m6 15a9 9 0 0 1 9-9"/></g></g></svg>